<svg id="visual" viewBox="0 0 1000 100" width="1000" height="100" xmlns="http://www.w3.org/2000/svg" xmlns:xlink="http://www.w3.org/1999/xlink" version="1.1">
    <style type="text/css">

        .text{

            border: 2px solid black;
            text-decoration: solid;
        }
        
    </style>
    <style>
        @font-face {
            font-family: 'Bungee Shade';
            src: url('https://fonts.googleapis.com/css?family=Bungee Shade'); 
            }
    </style>
    <rect x="0" y="0" width="1000" height="100" fill="#001220"></rect>
    <path d="M463 0L458.3 3.3C453.7 6.7 444.3 13.3 450.5 20C456.7 26.7 478.3 33.3 488.5 40C498.7 46.7 497.3 53.3 478 60C458.7 66.7 421.3 73.3 398 80C374.7 86.7 365.3 93.3 360.7 96.7L356 100L0 100L0 96.7C0 93.3 0 86.7 0 80C0 73.3 0 66.7 0 60C0 53.3 0 46.7 0 40C0 33.3 0 26.7 0 20C0 13.3 0 6.7 0 3.3L0 0Z" fill="#009473"></path>
    <path d="M369 0L362.2 3.3C355.3 6.7 341.7 13.3 341.8 20C342 26.7 356 33.3 356.7 40C357.3 46.7 344.7 53.3 347 60C349.3 66.7 366.7 73.3 369.8 80C373 86.7 362 93.3 356.5 96.7L351 100L0 100L0 96.7C0 93.3 0 86.7 0 80C0 73.3 0 66.7 0 60C0 53.3 0 46.7 0 40C0 33.3 0 26.7 0 20C0 13.3 0 6.7 0 3.3L0 0Z" fill="#009f9e"></path>
    <path d="M229 0L228.8 3.3C228.7 6.7 228.3 13.3 244.2 20C260 26.7 292 33.3 307.5 40C323 46.7 322 53.3 319.8 60C317.7 66.7 314.3 73.3 313.7 80C313 86.7 315 93.3 316 96.7L317 100L0 100L0 96.7C0 93.3 0 86.7 0 80C0 73.3 0 66.7 0 60C0 53.3 0 46.7 0 40C0 33.3 0 26.7 0 20C0 13.3 0 6.7 0 3.3L0 0Z" fill="#00a6c1"></path>
    <path d="M149 0L164.2 3.3C179.3 6.7 209.7 13.3 211.3 20C213 26.7 186 33.3 174.2 40C162.3 46.7 165.7 53.3 164.7 60C163.7 66.7 158.3 73.3 169.3 80C180.3 86.7 207.7 93.3 221.3 96.7L235 100L0 100L0 96.7C0 93.3 0 86.7 0 80C0 73.3 0 66.7 0 60C0 53.3 0 46.7 0 40C0 33.3 0 26.7 0 20C0 13.3 0 6.7 0 3.3L0 0Z" fill="#0babdf"></path>
    <path d="M125 0L121.5 3.3C118 6.7 111 13.3 106 20C101 26.7 98 33.3 97.7 40C97.3 46.7 99.7 53.3 109 60C118.3 66.7 134.7 73.3 140 80C145.3 86.7 139.7 93.3 136.8 96.7L134 100L0 100L0 96.7C0 93.3 0 86.7 0 80C0 73.3 0 66.7 0 60C0 53.3 0 46.7 0 40C0 33.3 0 26.7 0 20C0 13.3 0 6.7 0 3.3L0 0Z" fill="#4facf7"></path>
    <text font-family="Courier" font-weight="300" font-size="45px" x="50%" y="60%" fill="#fff" text-anchor="middle">blog</text>
</svg>