<svg id="visual" viewBox="0 0 900 600" width="900" height="600" xmlns="http://www.w3.org/2000/svg" xmlns:xlink="http://www.w3.org/1999/xlink" version="1.1">   
    <rect x="0" y="0" width="900" height="600" fill="#001122"></rect>
    <path d="M0 538L90 533L180 483L270 510L360 528L450 460L540 498L630 487L720 540L810 495L900 566L900 601L810 601L720 601L630 601L540 601L450 601L360 601L270 601L180 601L90 601L0 601Z" fill="#0af5f5"></path>
    <path d="M0 490L90 507L180 533L270 561L360 510L450 570L540 539L630 521L720 535L810 476L900 516L900 601L810 601L720 601L630 601L540 601L450 601L360 601L270 601L180 601L90 601L0 601Z" fill="#37d8af"></path>
    <path d="M0 573L90 573L180 507L270 541L360 532L450 505L540 545L630 499L720 562L810 540L900 505L900 601L810 601L720 601L630 601L540 601L450 601L360 601L270 601L180 601L90 601L0 601Z" fill="#5fb86a"></path>
    <path d="M0 528L90 554L180 566L270 516L360 569L450 511L540 536L630 572L720 556L810 509L900 564L900 601L810 601L720 601L630 601L540 601L450 601L360 601L270 601L180 601L90 601L0 601Z" fill="#77952b"></path>
    <path d="M0 537L90 561L180 528L270 578L360 538L450 542L540 538L630 577L720 583L810 523L900 585L900 601L810 601L720 601L630 601L540 601L450 601L360 601L270 601L180 601L90 601L0 601Z" fill="#856f00"></path>
    <path d="M0 542L90 560L180 544L270 542L360 585L450 554L540 570L630 569L720 573L810 572L900 564L900 601L810 601L720 601L630 601L540 601L450 601L360 601L270 601L180 601L90 601L0 601Z" fill="#8b4500"></path>
    <path d="M0 587L90 581L180 587L270 582L360 592L450 584L540 574L630 562L720 590L810 587L900 583L900 601L810 601L720 601L630 601L540 601L450 601L360 601L270 601L180 601L90 601L0 601Z" fill="#870000"></path>
</svg>
